<svg xmlns="http://www.w3.org/2000/svg" viewBox="0 0 1600 900" role="img" aria-label="Market scanner placeholder graphic">
  <defs>
    <linearGradient id="bg" x1="0" y1="0" x2="1" y2="1">
      <stop offset="0%" stop-color="#071024"/>
      <stop offset="100%" stop-color="#040913"/>
    </linearGradient>
    <linearGradient id="accent" x1="0" y1="0" x2="1" y2="0">
      <stop offset="0%" stop-color="#22d3ee"/>
      <stop offset="100%" stop-color="#34d399"/>
    </linearGradient>
  </defs>

  <rect width="1600" height="900" fill="url(#bg)"/>
  <rect x="44" y="44" width="1512" height="812" rx="30" fill="none" stroke="#1d4f74" stroke-width="2"/>

  <text x="84" y="112" fill="#8ab4d4" font-family="Segoe UI, Arial, sans-serif" font-size="42" font-weight="700">Adaptive Scanner Preview</text>
  <text x="84" y="154" fill="#5f7e9f" font-family="Segoe UI, Arial, sans-serif" font-size="24">Dummy heatmap and scoring layout</text>

  <rect x="84" y="190" width="930" height="620" rx="20" fill="#061126" stroke="#21527a" stroke-width="2"/>
  <g transform="translate(120 240)">
    <rect width="860" height="520" rx="14" fill="#08152b" stroke="#274f72" stroke-width="2"/>
    <g opacity="0.9">
      <rect x="20" y="20" width="200" height="54" rx="8" fill="#0d1d35"/>
      <text x="36" y="56" fill="#79d9f0" font-family="Segoe UI, Arial, sans-serif" font-size="24">BTCUSDT</text>
      <rect x="242" y="20" width="200" height="54" rx="8" fill="#0d1d35"/>
      <text x="258" y="56" fill="#7de2c1" font-family="Segoe UI, Arial, sans-serif" font-size="24">ETHUSDT</text>
      <rect x="464" y="20" width="200" height="54" rx="8" fill="#0d1d35"/>
      <text x="480" y="56" fill="#93c5fd" font-family="Segoe UI, Arial, sans-serif" font-size="24">SOLUSDT</text>
      <rect x="686" y="20" width="154" height="54" rx="8" fill="#0d1d35"/>
      <text x="702" y="56" fill="#f0abfc" font-family="Segoe UI, Arial, sans-serif" font-size="24">XRPUSDT</text>
    </g>

    <g transform="translate(20 108)">
      <rect width="820" height="384" rx="10" fill="#09182f"/>
      <g>
        <rect x="0" y="0" width="205" height="96" fill="#0f2c3f"/>
        <rect x="205" y="0" width="205" height="96" fill="#124733"/>
        <rect x="410" y="0" width="205" height="96" fill="#11354c"/>
        <rect x="615" y="0" width="205" height="96" fill="#155e75"/>
        <rect x="0" y="96" width="205" height="96" fill="#14253c"/>
        <rect x="205" y="96" width="205" height="96" fill="#0f6b5f"/>
        <rect x="410" y="96" width="205" height="96" fill="#1e3a8a"/>
        <rect x="615" y="96" width="205" height="96" fill="#0f4c81"/>
        <rect x="0" y="192" width="205" height="96" fill="#0c2134"/>
        <rect x="205" y="192" width="205" height="96" fill="#166534"/>
        <rect x="410" y="192" width="205" height="96" fill="#0f3c63"/>
        <rect x="615" y="192" width="205" height="96" fill="#0f766e"/>
        <rect x="0" y="288" width="205" height="96" fill="#111f33"/>
        <rect x="205" y="288" width="205" height="96" fill="#115e59"/>
        <rect x="410" y="288" width="205" height="96" fill="#0f4f7a"/>
        <rect x="615" y="288" width="205" height="96" fill="#0b3b62"/>
      </g>
    </g>
  </g>

  <rect x="1052" y="190" width="470" height="620" rx="20" fill="#061126" stroke="#21527a" stroke-width="2"/>
  <text x="1088" y="252" fill="#9cc7e8" font-family="Segoe UI, Arial, sans-serif" font-size="30" font-weight="600">Ranking Signals</text>
  <g font-family="Segoe UI, Arial, sans-serif" font-size="24">
    <text x="1088" y="312" fill="#89d6ed">1) BTCUSDT</text>
    <rect x="1248" y="294" width="230" height="12" rx="6" fill="#20334b"/>
    <rect x="1248" y="294" width="180" height="12" rx="6" fill="url(#accent)"/>
    <text x="1088" y="366" fill="#89d6ed">2) ETHUSDT</text>
    <rect x="1248" y="348" width="230" height="12" rx="6" fill="#20334b"/>
    <rect x="1248" y="348" width="164" height="12" rx="6" fill="url(#accent)"/>
    <text x="1088" y="420" fill="#89d6ed">3) SOLUSDT</text>
    <rect x="1248" y="402" width="230" height="12" rx="6" fill="#20334b"/>
    <rect x="1248" y="402" width="152" height="12" rx="6" fill="url(#accent)"/>
    <text x="1088" y="474" fill="#89d6ed">4) XRPUSDT</text>
    <rect x="1248" y="456" width="230" height="12" rx="6" fill="#20334b"/>
    <rect x="1248" y="456" width="138" height="12" rx="6" fill="url(#accent)"/>
  </g>
  <text x="1088" y="560" fill="#57d4ea" font-family="Segoe UI, Arial, sans-serif" font-size="28">Mode: Range Defense to Trend Follow</text>

  <rect x="1088" y="612" width="390" height="150" rx="14" fill="#08162d" stroke="#2a5275" stroke-width="2"/>
  <polyline points="1120,720 1180,692 1240,705 1300,658 1360,676 1420,628 1460,640" fill="none" stroke="#22d3ee" stroke-width="6"/>
  <text x="1120" y="664" fill="#6e90b4" font-family="Segoe UI, Arial, sans-serif" font-size="22">Confidence trend (dummy)</text>
</svg>
