<svg xmlns="http://www.w3.org/2000/svg" viewBox="0 0 1600 900" role="img" aria-label="Generic placeholder graphic">
  <defs>
    <linearGradient id="bg" x1="0" y1="0" x2="1" y2="1">
      <stop offset="0%" stop-color="#081025"/>
      <stop offset="100%" stop-color="#040913"/>
    </linearGradient>
    <linearGradient id="accent" x1="0" y1="0" x2="1" y2="0">
      <stop offset="0%" stop-color="#22d3ee"/>
      <stop offset="100%" stop-color="#34d399"/>
    </linearGradient>
  </defs>

  <rect width="1600" height="900" fill="url(#bg)"/>
  <rect x="44" y="44" width="1512" height="812" rx="30" fill="none" stroke="#1d4f74" stroke-width="2"/>

  <circle cx="330" cy="300" r="170" fill="#0b1830" stroke="#21527a" stroke-width="3"/>
  <circle cx="330" cy="300" r="112" fill="none" stroke="url(#accent)" stroke-width="12"/>
  <line x1="330" y1="188" x2="430" y2="278" stroke="#22d3ee" stroke-width="10" stroke-linecap="round"/>

  <rect x="560" y="180" width="950" height="540" rx="22" fill="#08162d" stroke="#21527a" stroke-width="2"/>
  <polyline points="610,620 720,560 810,580 900,500 1010,540 1110,420 1220,480 1310,360 1450,410" fill="none" stroke="url(#accent)" stroke-width="8"/>
  <rect x="610" y="260" width="840" height="12" rx="6" fill="#20334b"/>
  <rect x="610" y="260" width="540" height="12" rx="6" fill="#22d3ee"/>
  <rect x="610" y="290" width="840" height="12" rx="6" fill="#20334b"/>
  <rect x="610" y="290" width="690" height="12" rx="6" fill="#34d399"/>

  <text x="84" y="760" fill="#9cc7e8" font-family="Segoe UI, Arial, sans-serif" font-size="46" font-weight="700">Image unavailable</text>
  <text x="84" y="804" fill="#6e90b4" font-family="Segoe UI, Arial, sans-serif" font-size="28">Showing local placeholder graphic</text>
</svg>
